<!DOCTYPE svg PUBLIC "-//W3C//DTD SVG 1.1//EN" "http://www.w3.org/Graphics/SVG/1.1/DTD/svg11.dtd">
<!-- Uploaded to: SVG Repo, www.svgrepo.com, Transformed by: SVG Repo Mixer Tools -->
<svg width="256px" height="256px" viewBox="-0.75 -0.75 26.50 26.50" fill="none" xmlns="http://www.w3.org/2000/svg" stroke="#ffffff" stroke-width="0.65">
<g id="SVGRepo_bgCarrier" stroke-width="0"/>
<g id="SVGRepo_tracerCarrier" stroke-linecap="round" stroke-linejoin="round" stroke="#CCCCCC" stroke-width="1.05"> <path d="M21 6H3C2.72 6 2.5 6.22 2.5 6.5V14.5C2.5 14.78 2.72 15 3 15H5.5V19L9.5 15H21C21.28 15 21.5 14.78 21.5 14.5V6.5C21.5 6.23 21.27 6 21 6Z" stroke="#94a6bc" stroke-miterlimit="10" stroke-linecap="round" stroke-linejoin="round"/> <path d="M5 8.5H19" stroke="#94a6bc" stroke-miterlimit="10" stroke-linecap="round" stroke-linejoin="round"/> <path d="M5 10.5H19" stroke="#94a6bc" stroke-miterlimit="10" stroke-linecap="round" stroke-linejoin="round"/> <path d="M5 12.5H11" stroke="#94a6bc" stroke-miterlimit="10" stroke-linecap="round" stroke-linejoin="round"/> </g>
<g id="SVGRepo_iconCarrier"> <path d="M21 6H3C2.72 6 2.5 6.22 2.5 6.5V14.5C2.5 14.78 2.72 15 3 15H5.5V19L9.5 15H21C21.28 15 21.5 14.78 21.5 14.5V6.5C21.5 6.23 21.27 6 21 6Z" stroke="#94a6bc" stroke-miterlimit="10" stroke-linecap="round" stroke-linejoin="round"/> <path d="M5 8.5H19" stroke="#94a6bc" stroke-miterlimit="10" stroke-linecap="round" stroke-linejoin="round"/> <path d="M5 10.5H19" stroke="#94a6bc" stroke-miterlimit="10" stroke-linecap="round" stroke-linejoin="round"/> <path d="M5 12.5H11" stroke="#94a6bc" stroke-miterlimit="10" stroke-linecap="round" stroke-linejoin="round"/> </g>
</svg>